<?xml version="1.0" encoding="UTF-8"?>
<!DOCTYPE svg PUBLIC "-//W3C//DTD SVG 1.1//EN" "http://www.w3.org/Graphics/SVG/1.1/DTD/svg11.dtd">
<svg xmlns="http://www.w3.org/2000/svg" version="1.1" width="495px" height="478px" style="shape-rendering:geometricPrecision; text-rendering:geometricPrecision; image-rendering:optimizeQuality; fill-rule:evenodd; clip-rule:evenodd" xmlns:xlink="http://www.w3.org/1999/xlink">
<g><path style="opacity:0.999" fill="#7cabc5" d="M 258.5,29.5 C 260.167,29.5 261.833,29.5 263.5,29.5C 263.547,32.5682 264.047,35.5682 265,38.5C 268.395,46.9113 271.562,55.4113 274.5,64C 276.527,64.4978 278.527,64.3311 280.5,63.5C 281.167,63.8333 281.833,64.1667 282.5,64.5C 281.253,66.0421 281.253,67.5421 282.5,69C 293.829,71.918 305.162,72.0847 316.5,69.5C 312.742,64.406 308.075,60.406 302.5,57.5C 301.708,54.8743 301.041,52.2076 300.5,49.5C 300.529,47.9707 301.196,46.804 302.5,46C 308.196,45.1701 313.863,45.3368 319.5,46.5C 315.56,50.3797 313.227,55.0464 312.5,60.5C 317.152,60.9981 321.819,61.3314 326.5,61.5C 331.547,61.3375 336.547,61.6708 341.5,62.5C 343.631,63.3138 345.964,63.8138 348.5,64C 345.833,64.3333 343.167,64.6667 340.5,65C 339.328,65.4186 338.328,66.0853 337.5,67C 333.167,67.3333 328.833,67.6667 324.5,68C 325.5,68.3333 326.5,68.6667 327.5,69C 325.667,70.1667 323.833,71.3333 322,72.5C 321.333,74.5 321.333,76.5 322,78.5C 327.805,86.6058 333.972,94.4391 340.5,102C 348.799,106.401 356.299,111.901 363,118.5C 373.022,130.355 382.856,142.355 392.5,154.5C 389.43,156.464 386.597,158.798 384,161.5C 377.667,169.5 371.333,177.5 365,185.5C 364.602,189.628 363.102,193.294 360.5,196.5C 363.076,197.883 362.742,198.717 359.5,199C 354.736,206.099 348.903,212.266 342,217.5C 341.667,216.5 341.333,215.5 341,214.5C 338.463,217.372 335.63,219.872 332.5,222C 328.052,228.782 323.219,235.282 318,241.5C 317.251,244.686 316.085,247.686 314.5,250.5C 317.035,251.253 319.535,250.92 322,249.5C 321.326,251.92 320.493,254.42 319.5,257C 319.519,258.833 320.185,260.333 321.5,261.5C 319.795,260.465 318.128,260.465 316.5,261.5C 313.452,264.039 311.452,267.206 310.5,271C 311.252,273.154 311.419,275.32 311,277.5C 304.654,283.193 301.82,290.36 302.5,299C 302.647,303.291 303.147,307.457 304,311.5C 298.069,314.302 292.402,317.635 287,321.5C 286.46,325.351 286.626,329.185 287.5,333C 287.27,336.592 286.27,339.925 284.5,343C 285.358,344.57 286.025,346.237 286.5,348C 283.731,352.44 280.565,356.606 277,360.5C 277.117,364.678 277.783,368.678 279,372.5C 276.527,375.395 273.86,378.061 271,380.5C 270.271,384.377 270.438,388.211 271.5,392C 270.722,394.39 269.555,396.557 268,398.5C 267.655,403.267 266.821,407.934 265.5,412.5C 266.112,415.433 267.445,417.766 269.5,419.5C 264.39,419.688 259.057,419.688 253.5,419.5C 253.047,418.542 252.381,417.708 251.5,417C 249.369,416.457 247.369,415.624 245.5,414.5C 246.022,413.393 246.355,412.226 246.5,411C 245.786,408.236 244.786,405.569 243.5,403C 243.833,402.5 244.167,402 244.5,401.5C 248.664,404.302 252.664,404.136 256.5,401C 255.271,398.381 255.604,395.881 257.5,393.5C 255.486,391.817 253.82,389.817 252.5,387.5C 253.815,385.684 255.315,384.017 257,382.5C 257.311,380.444 257.811,378.444 258.5,376.5C 253.82,375.522 249.153,375.355 244.5,376C 245.573,374.687 246.24,373.187 246.5,371.5C 245.493,368.543 244.159,365.876 242.5,363.5C 244.857,363.663 247.19,363.497 249.5,363C 245.65,361.862 245.65,360.696 249.5,359.5C 253.452,361.566 256.786,360.566 259.5,356.5C 256.588,351.808 252.921,351.308 248.5,355C 247.48,356.556 246.147,357.722 244.5,358.5C 243.833,358.167 243.167,357.833 242.5,357.5C 243.52,355.568 243.687,353.568 243,351.5C 241.513,350.845 240.347,349.845 239.5,348.5C 245.17,348.179 250.503,346.845 255.5,344.5C 253.833,343.333 252.167,342.167 250.5,341C 253.667,337.833 256.833,334.667 260,331.5C 262.352,328.884 261.852,327.217 258.5,326.5C 255.048,327.977 251.548,329.31 248,330.5C 247.167,330.167 246.333,329.833 245.5,329.5C 251.882,321.62 259.382,314.954 268,309.5C 268.667,306.167 268.667,302.833 268,299.5C 267.586,299.043 267.086,298.709 266.5,298.5C 264.914,301.341 263.08,304.007 261,306.5C 258.618,303.573 256.118,300.739 253.5,298C 249.833,297.667 246.167,297.333 242.5,297C 245.463,295.039 248.129,292.706 250.5,290C 253.424,289.012 256.424,288.346 259.5,288C 264.263,285.156 265.93,281.156 264.5,276C 263.167,275.333 261.833,275.333 260.5,276C 258.63,277.366 256.63,278.533 254.5,279.5C 251.295,278.135 247.961,277.135 244.5,276.5C 247.145,270.655 251.812,267.489 258.5,267C 260.294,263.912 261.961,260.746 263.5,257.5C 258.787,251.124 253.454,245.458 247.5,240.5C 250.445,235.555 253.779,230.888 257.5,226.5C 257.167,226.167 256.833,225.833 256.5,225.5C 252.787,226.774 249.287,228.44 246,230.5C 233.342,215.187 224.342,197.853 219,178.5C 217.475,160.817 215.808,143.15 214,125.5C 204.376,116.55 195.543,107.05 187.5,97C 182.044,94.9011 176.711,95.2345 171.5,98C 159.131,104.136 148.464,112.136 139.5,122C 137.913,122.862 136.246,123.529 134.5,124C 132.354,128.307 129.354,131.807 125.5,134.5C 117.521,143.146 109.188,151.479 100.5,159.5C 99.6143,160.325 99.281,161.325 99.5,162.5C 89.61,168.541 82.7767,177.208 79,188.5C 78.1557,192.211 77.1557,195.877 76,199.5C 73.0981,231.147 73.0981,262.814 76,294.5C 78.842,306.845 83.842,318.178 91,328.5C 102.9,345.898 115.734,362.565 129.5,378.5C 123.773,375.919 117.773,374.753 111.5,375C 114.748,378.459 117.748,382.126 120.5,386C 108.833,386.667 97.1667,386.667 85.5,386C 81.8426,385.163 78.8426,383.33 76.5,380.5C 73.8686,367.331 70.8686,354.331 67.5,341.5C 58.5222,332.52 49.8555,323.186 41.5,313.5C 41.4078,302.118 40.7411,290.785 39.5,279.5C 35.8327,272.83 31.666,266.497 27,260.5C 26.51,259.207 26.3433,257.873 26.5,256.5C 31.7536,247.661 36.7536,238.661 41.5,229.5C 42.4884,228.205 43.4884,226.872 44.5,225.5C 44.3162,218.874 43.3162,212.208 41.5,205.5C 41.8168,201.298 41.4834,197.298 40.5,193.5C 40.6299,189.132 40.2965,184.798 39.5,180.5C 39.8473,177.472 41.014,174.806 43,172.5C 50.1355,164.364 57.6355,156.53 65.5,149C 72.9614,143.207 80.1281,137.041 87,130.5C 89.9917,123.534 92.9917,116.534 96,109.5C 99.7657,108.749 102.766,106.749 105,103.5C 109.293,96.4153 113.46,89.2486 117.5,82C 124.964,81.1037 131.964,78.7704 138.5,75C 143.599,68.8119 148.932,62.8119 154.5,57C 157.377,56.0438 160.044,54.7105 162.5,53C 166.042,53.569 169.708,54.069 173.5,54.5C 188.565,54.0304 203.565,52.8637 218.5,51C 232.054,44.0591 245.388,36.8924 258.5,29.5 Z"/></g>
<g><path style="opacity:0.998" fill="#deecf3" d="M 258.5,28.5 C 258.5,28.8333 258.5,29.1667 258.5,29.5C 245.388,36.8924 232.054,44.0591 218.5,51C 203.565,52.8637 188.565,54.0304 173.5,54.5C 169.708,54.069 166.042,53.569 162.5,53C 160.044,54.7105 157.377,56.0438 154.5,57C 148.932,62.8119 143.599,68.8119 138.5,75C 131.964,78.7704 124.964,81.1037 117.5,82C 113.46,89.2486 109.293,96.4153 105,103.5C 102.766,106.749 99.7657,108.749 96,109.5C 92.9917,116.534 89.9917,123.534 87,130.5C 80.1281,137.041 72.9614,143.207 65.5,149C 57.6355,156.53 50.1355,164.364 43,172.5C 41.014,174.806 39.8473,177.472 39.5,180.5C 40.2965,184.798 40.6299,189.132 40.5,193.5C 40.8076,195.924 40.4742,198.257 39.5,200.5C 35.7261,202.771 32.3928,205.604 29.5,209C 28.552,209.483 27.552,209.649 26.5,209.5C 44.6648,133.5 89.3315,79.3333 160.5,47C 175.494,41.002 190.828,36.002 206.5,32C 223.777,29.9846 241.11,28.818 258.5,28.5 Z"/></g>
<g><path style="opacity:1" fill="#a7c7d8" d="M 258.5,29.5 C 258.5,29.1667 258.5,28.8333 258.5,28.5C 267.429,28.4574 276.096,29.4574 284.5,31.5C 283.761,31.369 283.094,31.5357 282.5,32C 284.041,33.5793 285.208,35.4127 286,37.5C 287.679,40.5125 290.013,42.8459 293,44.5C 295.687,42.2287 298.521,40.062 301.5,38C 303.235,37.3486 304.902,37.5153 306.5,38.5C 306.788,37.1395 307.121,35.8062 307.5,34.5C 311.728,36.1105 316.061,37.4439 320.5,38.5C 320.586,39.4959 320.252,40.3292 319.5,41C 321.684,43.0165 323.684,45.1831 325.5,47.5C 323.47,49.607 321.303,51.607 319,53.5C 317.495,55.2983 317.328,57.1316 318.5,59C 320.833,59.3333 323.167,59.6667 325.5,60C 326.056,60.3826 326.389,60.8826 326.5,61.5C 321.819,61.3314 317.152,60.9981 312.5,60.5C 313.227,55.0464 315.56,50.3797 319.5,46.5C 313.863,45.3368 308.196,45.1701 302.5,46C 301.196,46.804 300.529,47.9707 300.5,49.5C 301.041,52.2076 301.708,54.8743 302.5,57.5C 308.075,60.406 312.742,64.406 316.5,69.5C 305.162,72.0847 293.829,71.918 282.5,69C 281.253,67.5421 281.253,66.0421 282.5,64.5C 281.833,64.1667 281.167,63.8333 280.5,63.5C 278.527,64.3311 276.527,64.4978 274.5,64C 271.562,55.4113 268.395,46.9113 265,38.5C 264.047,35.5682 263.547,32.5682 263.5,29.5C 261.833,29.5 260.167,29.5 258.5,29.5 Z"/></g>
<g><path style="opacity:1" fill="#deecf2" d="M 284.5,31.5 C 292.26,31.8468 299.927,32.8468 307.5,34.5C 307.121,35.8062 306.788,37.1395 306.5,38.5C 304.902,37.5153 303.235,37.3486 301.5,38C 298.521,40.062 295.687,42.2287 293,44.5C 290.013,42.8459 287.679,40.5125 286,37.5C 285.208,35.4127 284.041,33.5793 282.5,32C 283.094,31.5357 283.761,31.369 284.5,31.5 Z"/></g>
<g><path style="opacity:1" fill="#abcada" d="M 205.5,34.5 C 206.29,35.6085 206.79,36.9419 207,38.5C 208.487,39.1552 209.653,40.1552 210.5,41.5C 201.677,43.9172 192.677,45.4172 183.5,46C 191.62,43.442 198.954,39.6086 205.5,34.5 Z"/></g>
<g><path style="opacity:1" fill="#dbeaf1" d="M 320.5,38.5 C 334.977,43.0895 348.31,49.7562 360.5,58.5C 359.503,58.4701 358.836,58.9701 358.5,60C 358.988,61.584 359.988,62.7506 361.5,63.5C 360.167,63.8333 358.833,64.1667 357.5,64.5C 352.247,63.1866 346.914,62.52 341.5,62.5C 336.547,61.6708 331.547,61.3375 326.5,61.5C 326.389,60.8826 326.056,60.3826 325.5,60C 323.167,59.6667 320.833,59.3333 318.5,59C 317.328,57.1316 317.495,55.2983 319,53.5C 321.303,51.607 323.47,49.607 325.5,47.5C 323.684,45.1831 321.684,43.0165 319.5,41C 320.252,40.3292 320.586,39.4959 320.5,38.5 Z"/></g>
<g><path style="opacity:1" fill="#a7c7d8" d="M 360.5,58.5 C 369.751,64.0922 378.418,70.4255 386.5,77.5C 379.929,75.4317 373.929,72.265 368.5,68C 365.139,67.1201 364.639,67.9534 367,70.5C 375.715,80.8802 384.048,91.5468 392,102.5C 397.554,107.695 403.72,112.028 410.5,115.5C 410.833,115 411.167,114.5 411.5,114C 409.016,110.362 407.349,106.362 406.5,102C 406.509,100.596 407.009,99.4296 408,98.5C 411,105.167 414,111.833 417,118.5C 419.295,121.797 421.962,124.797 425,127.5C 425.483,128.448 425.649,129.448 425.5,130.5C 424.211,128.752 422.711,128.419 421,129.5C 419.084,149.291 417.584,168.957 416.5,188.5C 414.193,184.563 411.86,180.563 409.5,176.5C 408.833,176.167 408.167,175.833 407.5,175.5C 391.036,183.755 376.703,194.922 364.5,209C 353.064,217.136 341.897,225.636 331,234.5C 329.398,239.795 327.064,244.795 324,249.5C 323.438,251.866 323.604,254.199 324.5,256.5C 324.243,258.692 323.243,260.359 321.5,261.5C 320.185,260.333 319.519,258.833 319.5,257C 320.493,254.42 321.326,251.92 322,249.5C 319.535,250.92 317.035,251.253 314.5,250.5C 316.085,247.686 317.251,244.686 318,241.5C 323.219,235.282 328.052,228.782 332.5,222C 335.63,219.872 338.463,217.372 341,214.5C 341.333,215.5 341.667,216.5 342,217.5C 348.903,212.266 354.736,206.099 359.5,199C 362.742,198.717 363.076,197.883 360.5,196.5C 363.102,193.294 364.602,189.628 365,185.5C 371.333,177.5 377.667,169.5 384,161.5C 386.597,158.798 389.43,156.464 392.5,154.5C 382.856,142.355 373.022,130.355 363,118.5C 356.299,111.901 348.799,106.401 340.5,102C 333.972,94.4391 327.805,86.6058 322,78.5C 321.333,76.5 321.333,74.5 322,72.5C 323.833,71.3333 325.667,70.1667 327.5,69C 326.5,68.6667 325.5,68.3333 324.5,68C 328.833,67.6667 333.167,67.3333 337.5,67C 338.328,66.0853 339.328,65.4186 340.5,65C 343.167,64.6667 345.833,64.3333 348.5,64C 345.964,63.8138 343.631,63.3138 341.5,62.5C 346.914,62.52 352.247,63.1866 357.5,64.5C 358.833,64.1667 360.167,63.8333 361.5,63.5C 359.988,62.7506 358.988,61.584 358.5,60C 358.836,58.9701 359.503,58.4701 360.5,58.5 Z"/></g>
<g><path style="opacity:1" fill="#adcbdb" d="M 110.5,80.5 C 111.043,80.56 111.376,80.8933 111.5,81.5C 108.99,86.487 106.323,91.3203 103.5,96C 102.207,96.49 100.873,96.6567 99.5,96.5C 99.3433,95.1266 99.51,93.7932 100,92.5C 104.082,88.9244 107.582,84.9244 110.5,80.5 Z"/></g>
<g><path style="opacity:1" fill="#a8c8d9" d="M 253.5,419.5 C 248.167,419.5 242.833,419.5 237.5,419.5C 237.387,416.951 238.054,414.618 239.5,412.5C 239.167,411.5 238.5,410.833 237.5,410.5C 236.828,411.949 236.161,413.282 235.5,414.5C 233.734,411.812 232.067,408.979 230.5,406C 231.763,403.614 233.597,401.781 236,400.5C 236.015,389.928 234.515,379.595 231.5,369.5C 226.514,366.336 224.514,361.67 225.5,355.5C 228.187,355.664 230.854,355.497 233.5,355C 234.274,352.595 234.774,350.095 235,347.5C 236.745,346.044 238.578,344.711 240.5,343.5C 236.15,341.839 232.483,342.839 229.5,346.5C 228.817,346.137 228.15,345.804 227.5,345.5C 226.979,341.519 226.646,337.519 226.5,333.5C 226.369,332.761 226.536,332.094 227,331.5C 227.667,332.833 228.333,334.167 229,335.5C 231.35,333.317 233.517,330.984 235.5,328.5C 234.167,327.833 232.833,327.167 231.5,326.5C 232.865,325.059 234.365,323.726 236,322.5C 236.667,315.167 236.667,307.833 236,300.5C 233.903,299.009 231.57,298.009 229,297.5C 228.416,293.905 227.582,290.405 226.5,287C 222.489,287.822 218.489,288.989 214.5,290.5C 214.528,288.418 213.861,286.584 212.5,285C 208.423,283.4 204.756,281.234 201.5,278.5C 202.496,278.586 203.329,278.252 204,277.5C 205.372,274.382 206.538,271.216 207.5,268C 213.776,267.58 218.609,264.413 222,258.5C 223.049,254.735 224.382,251.068 226,247.5C 226.667,244.5 226.667,241.5 226,238.5C 222.772,233.027 218.438,228.693 213,225.5C 208.299,213.763 202.299,202.763 195,192.5C 168.074,179.569 146.074,160.902 129,136.5C 127.887,135.695 126.721,135.028 125.5,134.5C 129.354,131.807 132.354,128.307 134.5,124C 136.246,123.529 137.913,122.862 139.5,122C 148.464,112.136 159.131,104.136 171.5,98C 176.711,95.2345 182.044,94.9011 187.5,97C 195.543,107.05 204.376,116.55 214,125.5C 215.808,143.15 217.475,160.817 219,178.5C 224.342,197.853 233.342,215.187 246,230.5C 249.287,228.44 252.787,226.774 256.5,225.5C 256.833,225.833 257.167,226.167 257.5,226.5C 253.779,230.888 250.445,235.555 247.5,240.5C 253.454,245.458 258.787,251.124 263.5,257.5C 261.961,260.746 260.294,263.912 258.5,267C 251.812,267.489 247.145,270.655 244.5,276.5C 247.961,277.135 251.295,278.135 254.5,279.5C 256.63,278.533 258.63,277.366 260.5,276C 261.833,275.333 263.167,275.333 264.5,276C 265.93,281.156 264.263,285.156 259.5,288C 256.424,288.346 253.424,289.012 250.5,290C 248.129,292.706 245.463,295.039 242.5,297C 246.167,297.333 249.833,297.667 253.5,298C 256.118,300.739 258.618,303.573 261,306.5C 263.08,304.007 264.914,301.341 266.5,298.5C 267.086,298.709 267.586,299.043 268,299.5C 268.667,302.833 268.667,306.167 268,309.5C 259.382,314.954 251.882,321.62 245.5,329.5C 246.333,329.833 247.167,330.167 248,330.5C 251.548,329.31 255.048,327.977 258.5,326.5C 261.852,327.217 262.352,328.884 260,331.5C 256.833,334.667 253.667,337.833 250.5,341C 252.167,342.167 253.833,343.333 255.5,344.5C 250.503,346.845 245.17,348.179 239.5,348.5C 240.347,349.845 241.513,350.845 243,351.5C 243.687,353.568 243.52,355.568 242.5,357.5C 243.167,357.833 243.833,358.167 244.5,358.5C 246.147,357.722 247.48,356.556 248.5,355C 252.921,351.308 256.588,351.808 259.5,356.5C 256.786,360.566 253.452,361.566 249.5,359.5C 245.65,360.696 245.65,361.862 249.5,363C 247.19,363.497 244.857,363.663 242.5,363.5C 244.159,365.876 245.493,368.543 246.5,371.5C 246.24,373.187 245.573,374.687 244.5,376C 249.153,375.355 253.82,375.522 258.5,376.5C 257.811,378.444 257.311,380.444 257,382.5C 255.315,384.017 253.815,385.684 252.5,387.5C 253.82,389.817 255.486,391.817 257.5,393.5C 255.604,395.881 255.271,398.381 256.5,401C 252.664,404.136 248.664,404.302 244.5,401.5C 244.167,402 243.833,402.5 243.5,403C 244.786,405.569 245.786,408.236 246.5,411C 246.355,412.226 246.022,413.393 245.5,414.5C 247.369,415.624 249.369,416.457 251.5,417C 252.381,417.708 253.047,418.542 253.5,419.5 Z"/></g>
<g><path style="opacity:0.999" fill="#dfedf3" d="M 425.5,130.5 C 430.697,143.924 435.197,157.591 439,171.5C 442.098,179.354 445.432,187.021 449,194.5C 447.755,204.226 445.922,213.893 443.5,223.5C 441.826,226.554 441.326,229.888 442,233.5C 449.14,234.371 455.14,232.037 460,226.5C 463.52,231.15 464.354,236.316 462.5,242C 462.748,243.749 463.748,244.582 465.5,244.5C 464.833,246.5 464.167,248.5 463.5,250.5C 467.135,250.656 467.468,251.822 464.5,254C 465.357,254.689 466.023,255.522 466.5,256.5C 465.119,258.691 463.119,260.024 460.5,260.5C 461.462,262.626 461.128,264.626 459.5,266.5C 458.522,268.532 457.022,270.198 455,271.5C 453.798,273.677 453.298,276.011 453.5,278.5C 456.5,278.5 459.5,278.5 462.5,278.5C 463.598,279.601 463.765,280.934 463,282.5C 445.031,315.769 428.698,349.769 414,384.5C 394.733,396.553 374.9,407.72 354.5,418C 337.934,429.231 321.934,441.231 306.5,454C 302.633,456.698 298.633,459.198 294.5,461.5C 293.817,461.137 293.15,460.804 292.5,460.5C 291.172,458.255 289.339,457.922 287,459.5C 283.195,457.02 279.695,454.187 276.5,451C 272.953,446.729 269.786,442.229 267,437.5C 255.1,441.86 244.267,447.86 234.5,455.5C 226.417,456.177 218.417,457.177 210.5,458.5C 205.141,458.33 199.808,457.83 194.5,457C 194,456.5 193.5,456 193,455.5C 192.542,452.442 192.876,449.442 194,446.5C 198.006,437.834 200.839,428.834 202.5,419.5C 213.473,420.729 224.473,420.729 235.5,419.5C 235.5,417.833 235.5,416.167 235.5,414.5C 236.161,413.282 236.828,411.949 237.5,410.5C 238.5,410.833 239.167,411.5 239.5,412.5C 238.054,414.618 237.387,416.951 237.5,419.5C 242.833,419.5 248.167,419.5 253.5,419.5C 259.057,419.688 264.39,419.688 269.5,419.5C 277.465,420.755 285.465,420.588 293.5,419C 320.036,406.799 345.369,392.466 369.5,376C 390.947,354.266 407.78,329.433 420,301.5C 430.965,263.439 429.798,225.772 416.5,188.5C 417.584,168.957 419.084,149.291 421,129.5C 422.711,128.419 424.211,128.752 425.5,130.5 Z"/></g>
<g><path style="opacity:1" fill="#dfedf3" d="M 125.5,134.5 C 126.721,135.028 127.887,135.695 129,136.5C 146.074,160.902 168.074,179.569 195,192.5C 202.299,202.763 208.299,213.763 213,225.5C 218.438,228.693 222.772,233.027 226,238.5C 226.667,241.5 226.667,244.5 226,247.5C 224.382,251.068 223.049,254.735 222,258.5C 218.609,264.413 213.776,267.58 207.5,268C 206.538,271.216 205.372,274.382 204,277.5C 203.329,278.252 202.496,278.586 201.5,278.5C 199.974,277.508 199.307,276.008 199.5,274C 200.486,268.521 200.652,263.021 200,257.5C 196.388,254.752 194.388,251.086 194,246.5C 191.089,239.181 186.589,233.014 180.5,228C 163.386,217.229 147.719,204.562 133.5,190C 126.004,184.751 118.337,179.751 110.5,175C 106.968,170.64 103.301,166.473 99.5,162.5C 99.281,161.325 99.6143,160.325 100.5,159.5C 109.188,151.479 117.521,143.146 125.5,134.5 Z"/></g>
<g><path style="opacity:1" fill="#aac9da" d="M 40.5,193.5 C 41.4834,197.298 41.8168,201.298 41.5,205.5C 35.7414,207.735 30.9081,211.401 27,216.5C 26.6174,215.944 26.1174,215.611 25.5,215.5C 26.1495,213.565 26.4828,211.565 26.5,209.5C 27.552,209.649 28.552,209.483 29.5,209C 32.3928,205.604 35.7261,202.771 39.5,200.5C 40.4742,198.257 40.8076,195.924 40.5,193.5 Z"/></g>
<g><path style="opacity:1" fill="#ddecf2" d="M 41.5,205.5 C 43.3162,212.208 44.3162,218.874 44.5,225.5C 39.2594,224.69 34.0927,224.69 29,225.5C 28.111,229.152 27.7776,232.818 28,236.5C 31.1627,232.331 35.1627,229.331 40,227.5C 41.0299,227.836 41.5299,228.503 41.5,229.5C 36.7536,238.661 31.7536,247.661 26.5,256.5C 26.0826,253.841 25.0826,251.508 23.5,249.5C 23.5922,238.118 24.2589,226.785 25.5,215.5C 26.1174,215.611 26.6174,215.944 27,216.5C 30.9081,211.401 35.7414,207.735 41.5,205.5 Z"/></g>
<g><path style="opacity:1" fill="#a7c7d8" d="M 465.5,244.5 C 463.748,244.582 462.748,243.749 462.5,242C 464.354,236.316 463.52,231.15 460,226.5C 455.14,232.037 449.14,234.371 442,233.5C 441.326,229.888 441.826,226.554 443.5,223.5C 443.34,225.199 443.506,226.866 444,228.5C 447.333,223.167 450.667,217.833 454,212.5C 455.049,211.483 456.216,211.316 457.5,212C 459.667,214.833 461.833,217.667 464,220.5C 464.229,228.547 464.729,236.547 465.5,244.5 Z"/></g>
<g><path style="opacity:1" fill="#abcada" d="M 44.5,225.5 C 43.4884,226.872 42.4884,228.205 41.5,229.5C 41.5299,228.503 41.0299,227.836 40,227.5C 35.1627,229.331 31.1627,232.331 28,236.5C 27.7776,232.818 28.111,229.152 29,225.5C 34.0927,224.69 39.2594,224.69 44.5,225.5 Z"/></g>
<g><path style="opacity:0.985" fill="#7dacc5" d="M 386.5,77.5 C 399.628,84.454 410.461,94.1207 419,106.5C 435.537,128.892 449.537,152.892 461,178.5C 473.958,227.014 473.291,275.347 459,323.5C 446.105,349.718 430.772,374.385 413,397.5C 392.508,416.82 370.008,433.32 345.5,447C 330.435,452.133 315.435,457.466 300.5,463C 293.057,465.689 285.391,467.355 277.5,468C 253.114,470.287 228.78,469.953 204.5,467C 198.882,465.629 193.548,463.795 188.5,461.5C 195.833,460.5 203.167,459.5 210.5,458.5C 218.417,457.177 226.417,456.177 234.5,455.5C 253.801,457.43 273.134,459.097 292.5,460.5C 293.15,460.804 293.817,461.137 294.5,461.5C 298.633,459.198 302.633,456.698 306.5,454C 321.934,441.231 337.934,429.231 354.5,418C 374.9,407.72 394.733,396.553 414,384.5C 428.698,349.769 445.031,315.769 463,282.5C 463.765,280.934 463.598,279.601 462.5,278.5C 460.912,274.654 459.912,270.654 459.5,266.5C 461.128,264.626 461.462,262.626 460.5,260.5C 463.119,260.024 465.119,258.691 466.5,256.5C 466.023,255.522 465.357,254.689 464.5,254C 467.468,251.822 467.135,250.656 463.5,250.5C 464.167,248.5 464.833,246.5 465.5,244.5C 464.729,236.547 464.229,228.547 464,220.5C 461.833,217.667 459.667,214.833 457.5,212C 456.216,211.316 455.049,211.483 454,212.5C 450.667,217.833 447.333,223.167 444,228.5C 443.506,226.866 443.34,225.199 443.5,223.5C 445.922,213.893 447.755,204.226 449,194.5C 445.432,187.021 442.098,179.354 439,171.5C 435.197,157.591 430.697,143.924 425.5,130.5C 425.649,129.448 425.483,128.448 425,127.5C 421.962,124.797 419.295,121.797 417,118.5C 414,111.833 411,105.167 408,98.5C 407.009,99.4296 406.509,100.596 406.5,102C 407.349,106.362 409.016,110.362 411.5,114C 411.167,114.5 410.833,115 410.5,115.5C 403.72,112.028 397.554,107.695 392,102.5C 384.048,91.5468 375.715,80.8802 367,70.5C 364.639,67.9534 365.139,67.1201 368.5,68C 373.929,72.265 379.929,75.4317 386.5,77.5 Z"/></g>
<g><path style="opacity:0.995" fill="#a8c8d9" d="M 23.5,249.5 C 25.0826,251.508 26.0826,253.841 26.5,256.5C 26.3433,257.873 26.51,259.207 27,260.5C 31.666,266.497 35.8327,272.83 39.5,279.5C 33.8121,280.011 29.9788,283.011 28,288.5C 27.6174,287.944 27.1174,287.611 26.5,287.5C 24.9027,274.896 23.9027,262.23 23.5,249.5 Z"/></g>
<g><path style="opacity:1" fill="#a8c8d9" d="M 459.5,266.5 C 459.912,270.654 460.912,274.654 462.5,278.5C 459.5,278.5 456.5,278.5 453.5,278.5C 453.298,276.011 453.798,273.677 455,271.5C 457.022,270.198 458.522,268.532 459.5,266.5 Z"/></g>
<g><path style="opacity:0.999" fill="#dbeaf1" d="M 39.5,279.5 C 40.7411,290.785 41.4078,302.118 41.5,313.5C 41.8093,319.272 42.6426,324.939 44,330.5C 44.3333,329.833 44.6667,329.167 45,328.5C 51.4893,335.461 55.656,343.294 57.5,352C 57.3158,353.376 56.6491,354.209 55.5,354.5C 41.4067,334.265 31.7401,311.932 26.5,287.5C 27.1174,287.611 27.6174,287.944 28,288.5C 29.9788,283.011 33.8121,280.011 39.5,279.5 Z"/></g>
<g><path style="opacity:1" fill="#d8e9f0" d="M 226.5,333.5 C 222.874,328.038 222.374,322.371 225,316.5C 225.903,311.309 223.903,307.642 219,305.5C 217.183,300.552 215.683,295.552 214.5,290.5C 218.489,288.989 222.489,287.822 226.5,287C 227.582,290.405 228.416,293.905 229,297.5C 231.57,298.009 233.903,299.009 236,300.5C 236.667,307.833 236.667,315.167 236,322.5C 234.365,323.726 232.865,325.059 231.5,326.5C 232.833,327.167 234.167,327.833 235.5,328.5C 233.517,330.984 231.35,333.317 229,335.5C 228.333,334.167 227.667,332.833 227,331.5C 226.536,332.094 226.369,332.761 226.5,333.5 Z"/></g>
<g><path style="opacity:1" fill="#a8c8d9" d="M 41.5,313.5 C 49.8555,323.186 58.5222,332.52 67.5,341.5C 64.341,341.917 62.341,343.75 61.5,347C 62.4177,353.006 63.4177,359.006 64.5,365C 64.472,366.07 64.1386,366.903 63.5,367.5C 60.0843,363.677 57.4176,359.343 55.5,354.5C 56.6491,354.209 57.3158,353.376 57.5,352C 55.656,343.294 51.4893,335.461 45,328.5C 44.6667,329.167 44.3333,329.833 44,330.5C 42.6426,324.939 41.8093,319.272 41.5,313.5 Z"/></g>
<g><path style="opacity:1" fill="#dcebf2" d="M 67.5,341.5 C 70.8686,354.331 73.8686,367.331 76.5,380.5C 75.4154,382.587 73.7488,383.92 71.5,384.5C 68.5789,378.989 65.9122,373.323 63.5,367.5C 64.1386,366.903 64.472,366.07 64.5,365C 63.4177,359.006 62.4177,353.006 61.5,347C 62.341,343.75 64.341,341.917 67.5,341.5 Z"/></g>
<g><path style="opacity:1" fill="#dbeaf1" d="M 225.5,355.5 C 226.793,352.321 227.46,348.988 227.5,345.5C 228.15,345.804 228.817,346.137 229.5,346.5C 232.483,342.839 236.15,341.839 240.5,343.5C 238.578,344.711 236.745,346.044 235,347.5C 234.774,350.095 234.274,352.595 233.5,355C 230.854,355.497 228.187,355.664 225.5,355.5 Z"/></g>
<g><path style="opacity:1" fill="#a7c7d8" d="M 129.5,378.5 C 153.103,393.429 177.436,407.096 202.5,419.5C 200.839,428.834 198.006,437.834 194,446.5C 192.876,449.442 192.542,452.442 193,455.5C 193.5,456 194,456.5 194.5,457C 199.808,457.83 205.141,458.33 210.5,458.5C 203.167,459.5 195.833,460.5 188.5,461.5C 185.084,461.472 182.084,460.472 179.5,458.5C 180.586,458.38 181.253,457.713 181.5,456.5C 178.024,446.049 173.357,436.216 167.5,427C 158.175,425.034 148.842,425.034 139.5,427C 139.173,431.214 138.173,435.048 136.5,438.5C 127.963,434.284 119.963,429.284 112.5,423.5C 108.439,416.382 104.606,409.049 101,401.5C 98.8614,398.061 96.3614,394.894 93.5,392C 92.3999,391.568 91.7332,392.068 91.5,393.5C 93.1962,398.875 94.8628,404.208 96.5,409.5C 87.1667,402.167 78.8333,393.833 71.5,384.5C 73.7488,383.92 75.4154,382.587 76.5,380.5C 78.8426,383.33 81.8426,385.163 85.5,386C 97.1667,386.667 108.833,386.667 120.5,386C 117.748,382.126 114.748,378.459 111.5,375C 117.773,374.753 123.773,375.919 129.5,378.5 Z"/></g>
<g><path style="opacity:0.998" fill="#7eacc6" d="M 112.5,423.5 C 106.783,419.302 101.45,414.636 96.5,409.5C 94.8628,404.208 93.1962,398.875 91.5,393.5C 91.7332,392.068 92.3999,391.568 93.5,392C 96.3614,394.894 98.8614,398.061 101,401.5C 104.606,409.049 108.439,416.382 112.5,423.5 Z"/></g>
<g><path style="opacity:1" fill="#7eacc6" d="M 179.5,458.5 C 178.167,458.167 176.833,457.833 175.5,457.5C 176.303,456.577 176.47,455.577 176,454.5C 168.13,446.961 159.963,439.794 151.5,433C 148.714,430.94 145.714,429.44 142.5,428.5C 142.033,433.4 142.699,438.067 144.5,442.5C 141.246,442.206 138.579,440.873 136.5,438.5C 138.173,435.048 139.173,431.214 139.5,427C 148.842,425.034 158.175,425.034 167.5,427C 173.357,436.216 178.024,446.049 181.5,456.5C 181.253,457.713 180.586,458.38 179.5,458.5 Z"/></g>
<g><path style="opacity:1" fill="#a6c6d8" d="M 175.5,457.5 C 164.673,453.252 154.34,448.252 144.5,442.5C 142.699,438.067 142.033,433.4 142.5,428.5C 145.714,429.44 148.714,430.94 151.5,433C 159.963,439.794 168.13,446.961 176,454.5C 176.47,455.577 176.303,456.577 175.5,457.5 Z"/></g>
<g><path style="opacity:1" fill="#a8c8d9" d="M 292.5,460.5 C 273.134,459.097 253.801,457.43 234.5,455.5C 244.267,447.86 255.1,441.86 267,437.5C 269.786,442.229 272.953,446.729 276.5,451C 279.695,454.187 283.195,457.02 287,459.5C 289.339,457.922 291.172,458.255 292.5,460.5 Z"/></g>
</svg>
