<svg xmlns="http://www.w3.org/2000/svg" version="1.0" width="512.000000pt" height="512.000000pt" viewBox="0 0 512.000000 512.000000" preserveAspectRatio="xMidYMid meet">
<metadata fill="#ffffff">
Created by potrace 1.16, written by Peter Selinger 2001-2019
</metadata>
<g transform="translate(0.000000,512.000000) scale(0.100000,-0.100000)" fill="#ffffff" stroke="none">
<path d="M4010 5098 c-97 -34 -152 -74 -287 -210 l-123 -123 585 -585 586 -585 134 136 c116 118 140 147 172 215 37 76 38 83 41 206 3 100 0 138 -13 180 -37 114 -69 154 -344 429 -260 261 -268 268 -356 310 -89 43 -92 43 -210 46 -104 3 -128 1 -185 -19z" fill="#ffffff"/>
<path d="M2045 3210 l-1410 -1410 580 -580 c319 -319 584 -580 590 -580 6 0 642 632 1415 1405 l1405 1405 -585 585 -585 585 -1410 -1410z" fill="#ffffff"/>
<path d="M266 803 c-146 -438 -263 -799 -260 -802 4 -4 1454 473 1583 521 24 8 -6 40 -509 543 -294 294 -538 535 -542 535 -3 0 -126 -359 -272 -797z" fill="#ffffff"/>
</g>
</svg>