<?xml version="1.0" standalone="no"?>
<!DOCTYPE svg PUBLIC "-//W3C//DTD SVG 20010904//EN"
 "http://www.w3.org/TR/2001/REC-SVG-20010904/DTD/svg10.dtd">
<svg version="1.0" xmlns="http://www.w3.org/2000/svg"
 width="512.000000pt" height="512.000000pt" viewBox="0 0 512.000000 512.000000"
 preserveAspectRatio="xMidYMid meet">
<metadata>
Created by potrace 1.16, written by Peter Selinger 2001-2019
</metadata>
<g transform="translate(0.000000,512.000000) scale(0.100000,-0.100000)"
fill="#000000" stroke="none">
<path d="M2545 4745 c-5 -2 -23 -6 -40 -10 -22 -5 -127 -103 -394 -368 -200
-199 -376 -380 -392 -401 -24 -32 -29 -49 -29 -93 0 -62 17 -100 60 -136 36
-31 85 -42 138 -32 32 6 71 41 275 243 l237 236 0 -1064 c0 -1041 0 -1065 20
-1104 28 -59 77 -89 144 -89 69 0 117 29 145 87 21 42 21 51 21 1106 l0 1064
238 -236 c228 -227 239 -237 284 -243 27 -4 61 -2 80 4 39 13 92 65 103 100
13 43 6 111 -14 144 -11 18 -188 199 -393 404 -315 313 -379 373 -413 382 -41
11 -52 12 -70 6z"/>
<path d="M1288 3430 c-192 -23 -362 -182 -403 -377 -22 -101 -22 -2195 0
-2296 41 -195 204 -349 400 -377 94 -13 2456 -13 2550 0 196 28 359 182 400
377 22 101 22 2195 0 2296 -36 169 -154 300 -324 359 -63 22 -80 23 -352 23
l-285 0 -37 -25 c-51 -34 -81 -98 -74 -157 5 -51 29 -88 77 -120 32 -22 40
-23 279 -23 135 0 262 -5 281 -10 41 -11 94 -61 109 -103 8 -19 11 -367 11
-1094 0 -1058 0 -1067 -21 -1109 -12 -26 -36 -53 -57 -66 l-37 -23 -1245 0
-1245 0 -37 23 c-21 13 -45 40 -57 66 -21 42 -21 51 -21 1109 0 727 3 1075 11
1094 15 42 68 92 109 103 19 5 144 10 278 10 266 0 277 2 325 60 30 36 42 85
32 136 -9 50 -69 113 -120 124 -48 11 -451 11 -547 0z"/>
</g>
</svg>
