<svg xmlns="http://www.w3.org/2000/svg" version="1.0" width="512.000000pt" height="512.000000pt" viewBox="0 0 512.000000 512.000000" preserveAspectRatio="xMidYMid meet">
<metadata fill="#ffffff">
Created by potrace 1.16, written by Peter Selinger 2001-2019
</metadata>
<g transform="translate(0.000000,512.000000) scale(0.100000,-0.100000)" fill="#ffffff" stroke="none">
<path d="M1858 5104 c-1068 -155 -1844 -1117 -1768 -2192 53 -752 493 -1401 1172 -1726 439 -211 936 -261 1410 -141 196 50 441 156 595 259 l68 45 67 -67 c37 -37 321 -330 630 -651 365 -379 577 -592 603 -605 27 -14 65 -22 118 -24 68 -4 84 -1 132 22 96 48 149 134 149 248 0 116 4 111 -659 799 -330 343 -606 630 -612 640 -11 14 -8 23 19 55 61 77 171 251 223 354 98 196 168 415 201 634 24 155 24 442 0 601 -57 375 -216 734 -451 1014 -342 408 -795 662 -1317 736 -130 19 -448 18 -580 -1z m512 -545 c429 -58 841 -327 1078 -704 170 -272 253 -614 223 -926 -44 -473 -286 -883 -675 -1142 -507 -339 -1165 -340 -1674 -4 -577 381 -826 1090 -612 1738 79 239 193 423 375 604 346 347 798 499 1285 434z" fill="#ffffff"/>
</g>
</svg>